<svg width="19" height="18" viewBox="0 0 19 18" fill="none" xmlns="http://www.w3.org/2000/svg">
<path d="M1.7973 8.98649H11.5541M3.85135 12.0676L0.77027 8.98649L3.85135 5.90541M8.98649 3.85135V2.82432C8.98649 2.27956 9.2029 1.7571 9.58811 1.37189C9.97332 0.986679 10.4958 0.77027 11.0405 0.77027H16.1757C16.7204 0.77027 17.2429 0.986679 17.6281 1.37189C18.0133 1.7571 18.2297 2.27956 18.2297 2.82432V15.1486C18.2297 15.6934 18.0133 16.2159 17.6281 16.6011C17.2429 16.9863 16.7204 17.2027 16.1757 17.2027H11.0405C10.4958 17.2027 9.97332 16.9863 9.58811 16.6011C9.2029 16.2159 8.98649 15.6934 8.98649 15.1486V14.1216" stroke="#FAFAFA" stroke-width="1.5" stroke-linecap="round" stroke-linejoin="round"/>
</svg>
