<svg width="21" height="17" viewBox="0 0 21 17" fill="none" xmlns="http://www.w3.org/2000/svg">
<path d="M11.1363 4.94929L11.1363 4.94924C11.1509 4.14646 11.4802 3.38152 12.0531 2.81903C12.6261 2.25655 13.397 1.94148 14.1999 1.94161L11.1363 4.94929ZM11.1363 4.94929L11.1077 6.55752M11.1363 4.94929L11.1077 6.55752M2.81661 3.88933L2.9513 4.00156C4.86788 5.59837 6.86027 6.55434 8.935 6.83718C8.93502 6.83718 8.93504 6.83718 8.93506 6.83719L10.529 7.05366L2.81661 3.88933ZM2.81661 3.88933L2.78544 4.06186M2.81661 3.88933L2.78544 4.06186M2.78544 4.06186C2.4772 5.76797 2.62277 7.22081 3.21466 8.47782C3.80622 9.73412 4.83875 10.7845 6.28631 11.6948L6.28633 11.6948M2.78544 4.06186L6.28633 11.6948M6.28633 11.6948L8.07038 12.8161L8.12267 12.7329M6.28633 11.6948L8.12267 12.7329M8.12267 12.7329L8.07038 12.8161C8.14102 12.8605 8.19971 12.9215 8.24131 12.9938C8.2829 13.0662 8.30615 13.1476 8.309 13.2309C8.31186 13.3143 8.29424 13.3971 8.25768 13.4721C8.22113 13.5471 8.16675 13.612 8.09932 13.6611L8.0992 13.6612M8.12267 12.7329L8.0992 13.6612M8.0992 13.6612L6.47344 14.8489L6.24511 15.0157M8.0992 13.6612L6.24511 15.0157M6.24511 15.0157L6.52733 15.0333M6.24511 15.0157L6.52733 15.0333M6.52733 15.0333C7.50067 15.0939 8.4279 15.051 9.20052 14.8977L9.20064 14.8977M6.52733 15.0333L9.20064 14.8977M9.20064 14.8977C11.6301 14.4127 13.6582 13.2546 15.0783 11.459M9.20064 14.8977L15.0783 11.459M11.1077 6.55752C11.1063 6.62949 11.0897 6.70034 11.059 6.76545C11.0283 6.83055 10.9842 6.88842 10.9295 6.93527C10.8749 6.98212 10.8109 7.01688 10.7419 7.03729C10.6729 7.05768 10.6004 7.06327 10.5291 7.05367L11.1077 6.55752ZM15.0783 11.459C16.4983 9.66363 17.3043 7.23867 17.3043 4.23013M15.0783 11.459L17.3043 4.23013M17.3043 4.23013C17.3043 4.08143 17.2292 3.865 17.0991 3.63266M17.3043 4.23013L17.0991 3.63266M17.0991 3.63266C16.9666 3.39611 16.7697 3.13008 16.5102 2.8803M17.0991 3.63266L16.5102 2.8803M16.5102 2.8803C15.9908 2.38031 15.2159 1.94161 14.1999 1.94161L16.5102 2.8803ZM18.8901 1.57104C19.2822 1.51535 19.7384 1.37194 20.3383 1.03249C20.0259 2.54818 19.8441 3.23481 19.1621 4.16996L19.1425 4.19685V4.23013C19.1425 8.10994 17.9508 10.9848 16.1614 13.0099C14.371 15.0361 11.9764 16.2181 9.56098 16.7C7.90954 17.0295 5.87644 16.9242 4.08118 16.5544C3.18425 16.3696 2.34956 16.1193 1.65418 15.826C1.05927 15.5752 0.571969 15.2951 0.234427 15.0019C0.674658 14.9589 1.44133 14.8621 2.29124 14.6643C3.31233 14.4268 4.46444 14.041 5.3134 13.4197L5.43199 13.3329L5.30929 13.252C5.26661 13.2239 5.22019 13.1936 5.17038 13.1612C4.39606 12.6567 2.80472 11.6199 1.76827 9.71837C0.681284 7.72414 0.19665 4.76184 1.9542 0.434951C3.65478 2.39317 5.38442 3.73763 7.14338 4.45941L7.14339 4.45941C7.7373 4.70303 8.11099 4.82391 8.40642 4.89302C8.63009 4.94534 8.80901 4.9678 8.9986 4.99159C9.05845 4.9991 9.11936 5.00675 9.18308 5.01551L9.48418 5.0569L9.29904 4.87194C9.3246 3.92286 9.62526 3.00128 10.1649 2.2194C10.7128 1.42566 11.4827 0.811186 12.3781 0.452902C13.2736 0.0946186 14.2548 0.00845233 15.199 0.205192C16.1432 0.401932 17.0083 0.872834 17.6861 1.55894L17.7164 1.58959L17.7595 1.58929C17.8644 1.58855 17.9703 1.59214 18.079 1.59582C18.3289 1.6043 18.5929 1.61325 18.8901 1.57104Z" fill="white" stroke="black" stroke-width="0.2"/>
</svg>
