<svg width="21" height="17" viewBox="0 0 21 17" fill="none" xmlns="http://www.w3.org/2000/svg">
<path d="M11.1364 4.94932L11.1364 4.94927C11.151 4.14649 11.4803 3.38155 12.0532 2.81906C12.6262 2.25657 13.3971 1.94149 14.2 1.94162L11.1364 4.94932ZM11.1364 4.94932L11.1078 6.55757M11.1364 4.94932L11.1078 6.55757M2.81663 3.88936L2.95132 4.00158C4.86792 5.59841 6.86032 6.55439 8.93507 6.83723C8.93509 6.83723 8.9351 6.83723 8.93512 6.83724L10.5291 7.05371L2.81663 3.88936ZM2.81663 3.88936L2.78546 4.06189M2.81663 3.88936L2.78546 4.06189M2.78546 4.06189C2.47722 5.76801 2.62279 7.22086 3.21468 8.47788C3.80625 9.73419 4.83879 10.7846 6.28635 11.6949L6.28638 11.6949M2.78546 4.06189L6.28638 11.6949M6.28638 11.6949L8.07044 12.8162L8.12273 12.733M6.28638 11.6949L8.12273 12.733M8.12273 12.733L8.07044 12.8162C8.14108 12.8606 8.19977 12.9216 8.24137 12.9939C8.28296 13.0663 8.30621 13.1477 8.30906 13.231C8.31192 13.3144 8.2943 13.3972 8.25774 13.4722C8.22119 13.5472 8.16681 13.6121 8.09938 13.6612L8.09926 13.6613M8.12273 12.733L8.09926 13.6613M8.09926 13.6613L6.47349 14.849L6.24516 15.0158M8.09926 13.6613L6.24516 15.0158M6.24516 15.0158L6.52738 15.0334M6.24516 15.0158L6.52738 15.0334M6.52738 15.0334C7.50072 15.094 8.42796 15.0511 9.20059 14.8979L9.20071 14.8978M6.52738 15.0334L9.20071 14.8978M9.20071 14.8978C11.6302 14.4128 13.6583 13.2547 15.0784 11.4591M9.20071 14.8978L15.0784 11.4591M11.1078 6.55757C11.1064 6.62954 11.0898 6.70039 11.0591 6.76549C11.0284 6.8306 10.9842 6.88847 10.9296 6.93532C10.875 6.98217 10.811 7.01694 10.742 7.03734C10.673 7.05773 10.6005 7.06332 10.5292 7.05373L11.1078 6.55757ZM15.0784 11.4591C16.4984 9.66371 17.3045 7.23872 17.3045 4.23016M15.0784 11.4591L17.3045 4.23016M17.3045 4.23016C17.3045 4.08146 17.2294 3.86503 17.0992 3.63269M17.3045 4.23016L17.0992 3.63269M17.0992 3.63269C16.9667 3.39614 16.7698 3.13011 16.5103 2.88032M17.0992 3.63269L16.5103 2.88032M16.5103 2.88032C15.9909 2.38033 15.216 1.94163 14.2 1.94162L16.5103 2.88032ZM18.8902 1.57105C19.2824 1.51536 19.7385 1.37195 20.3385 1.0325C20.0261 2.54819 19.8443 3.23484 19.1623 4.16999L19.1427 4.19688V4.23016C19.1427 8.11 17.9509 10.9849 16.1615 13.01C14.3711 15.0362 11.9765 16.2182 9.56105 16.7001C7.9096 17.0296 5.87648 16.9244 4.08121 16.5545C3.18427 16.3697 2.34957 16.1194 1.65419 15.8262C1.05927 15.5753 0.571973 15.2953 0.234429 15.002C0.674663 14.959 1.44134 14.8622 2.29126 14.6644C3.31236 14.4269 4.46447 14.0411 5.31344 13.4198L5.43203 13.333L5.30933 13.2521C5.26665 13.224 5.22023 13.1937 5.17042 13.1613C4.39609 12.6568 2.80474 11.6199 1.76829 9.71844C0.681289 7.7242 0.196652 4.76187 1.95422 0.434954C3.65481 2.39318 5.38446 3.73765 7.14343 4.45944L7.14344 4.45944C7.73736 4.70306 8.11105 4.82394 8.40648 4.89305C8.63015 4.94538 8.80907 4.96783 8.99867 4.99163C9.05851 4.99914 9.11943 5.00679 9.18315 5.01554L9.48425 5.05694L9.29911 4.87198C9.32467 3.92289 9.62533 3.0013 10.165 2.21942C10.7129 1.42567 11.4828 0.811192 12.3782 0.452906C13.2737 0.0946193 14.2549 0.00845239 15.1991 0.205193C16.1433 0.401935 17.0084 0.87284 17.6863 1.55895L17.7165 1.5896L17.7596 1.5893C17.8645 1.58856 17.9705 1.59215 18.0791 1.59584C18.3291 1.60431 18.5931 1.61326 18.8902 1.57105Z" fill="black" stroke="white" stroke-width="0.2"/>
</svg>
